<?xml version="1.0" encoding="UTF-8" standalone="no"?>
<!-- Created with Inkscape (http://www.inkscape.org/) -->

<svg
   width="365.32382mm"
   height="93.626289mm"
   viewBox="0 0 365.32382 93.626289"
   version="1.1"
   id="svg1"
   xml:space="preserve"
   inkscape:version="1.4 (86a8ad7, 2024-10-11)"
   sodipodi:docname="logo.svg"
   xmlns:inkscape="http://www.inkscape.org/namespaces/inkscape"
   xmlns:sodipodi="http://sodipodi.sourceforge.net/DTD/sodipodi-0.dtd"
   xmlns="http://www.w3.org/2000/svg"
   xmlns:svg="http://www.w3.org/2000/svg"><sodipodi:namedview
     id="namedview1"
     pagecolor="#ffffff"
     bordercolor="#000000"
     borderopacity="0.25"
     inkscape:showpageshadow="2"
     inkscape:pageopacity="0.0"
     inkscape:pagecheckerboard="0"
     inkscape:deskcolor="#d1d1d1"
     inkscape:document-units="mm"
     inkscape:zoom="0.72426347"
     inkscape:cx="619.24979"
     inkscape:cy="470.13278"
     inkscape:window-width="1920"
     inkscape:window-height="1094"
     inkscape:window-x="-11"
     inkscape:window-y="-11"
     inkscape:window-maximized="1"
     inkscape:current-layer="layer1" /><defs
     id="defs1"><clipPath
       clipPathUnits="userSpaceOnUse"
       id="clipPath1"><rect
         style="fill:#000000;stroke-width:0.518972;stroke-dasharray:2.07589, 1.03795"
         id="rect2"
         width="109.59409"
         height="98.269371"
         x="45.664204"
         y="64.660515" /></clipPath></defs><g
     inkscape:label="Lag 1"
     inkscape:groupmode="layer"
     id="layer1"
     transform="translate(-43.604279,-23.935862)"><path
       style="fill:#000000"
       d="m 94.234095,116.91687 c -0.36081,-0.55066 -0.40135,-1.08291 -0.24687,-3.24114 l 0.18483,-2.5823 -15.572657,0.0244 c -14.195151,0.0223 -15.698329,0.0662 -16.993419,0.49634 -1.805286,0.59962 -4.215805,0.44325 -5.825348,-0.37787 -1.622464,-0.82772 -3.50297,-2.66655 -4.25778,-4.16341 -0.874076,-1.73338 -0.906647,-4.69604 -0.0707,-6.43053 0.561228,-1.164467 0.574354,-1.450667 0.597636,-13.030727 l 0.0238,-11.8401 H 51.28019 c -0.903042,0 -1.341181,-0.59011 -1.341181,-1.80638 0,-0.81793 0.372568,-1.10404 1.437696,-1.10404 0.572002,0 0.602064,-0.10101 0.629969,-2.11666 l 0.0293,-2.11667 h -0.887885 c -0.960064,0 -1.209083,-0.32696 -1.209083,-1.5875 0,-1.21117 0.2576,-1.5875 1.08664,-1.5875 h 0.765443 l 0.0307,-6.01927 c 0.01688,-3.3106 0.06411,-8.56202 0.104955,-11.66983 0.06864,-5.22301 0.03304,-5.74352 -0.470548,-6.87916 -0.738688,-1.66583 -0.74452,-4.48594 -0.01266,-6.1234 0.795631,-1.78015 2.748852,-3.79569 4.374671,-4.51425 2.051676,-0.90677 5.173208,-0.8977 6.820807,0.0198 l 1.190625,0.66304 15.160386,-0.088 15.16039,-0.088 -0.18316,-2.89456 c -0.1628,-2.57282 -0.13028,-2.953 0.2926,-3.42027 0.61904,-0.68404 1.57345,-0.66891 2.27846,0.0361 0.52051,0.52051 0.5531,0.77339 0.44324,3.43959 l -0.11857,2.87777 10.867715,0.0662 c 19.50043,0.11869 19.76484,0.10978 21.63466,-0.72935 2.88505,-1.29473 6.10301,-0.62954 8.39882,1.73613 1.28677,1.32593 2.14069,3.12739 2.32391,4.90258 0.19236,1.86379 -0.0551,2.98721 -0.96285,4.37136 -0.69542,1.06037 -0.74287,1.27874 -0.54008,2.48543 0.12227,0.7276 0.22941,5.99612 0.23809,11.70781 l 0.0158,10.38489 h 0.67595 c 0.64134,0 0.67183,0.0644 0.59532,1.25677 -0.0688,1.07249 -0.16794,1.26917 -0.67596,1.34132 -0.56319,0.08 -0.59531,0.204 -0.59531,2.29834 v 2.2138 l 0.85989,0.0829 c 0.72642,0.07 0.87338,0.20082 0.94671,0.84249 0.13566,1.1871 -0.16572,2.01855 -0.73167,2.01855 -1.25021,0 -1.20722,-0.42643 -1.20722,11.97581 0,10.31269 0.0512,11.79878 0.43084,12.498147 0.724,1.33384 1.04383,3.39701 0.75923,4.8977 -0.37512,1.97798 -2.64468,5.14969 -4.30428,6.01523 -1.6763,0.87424 -4.0989,1.0707 -6.08464,0.49343 -1.28549,-0.3737 -3.61422,-0.44444 -17.13095,-0.52041 l -15.643235,-0.0879 0.17789,2.53849 c 0.16492,2.35337 0.13591,2.59153 -0.3978,3.26608 -0.73211,0.92532 -1.69933,0.95449 -2.27969,0.0687 z M 60.7196,108.70209 c 1.964481,-0.82081 2.977747,-2.42338 2.977747,-4.70956 0,-2.42515 -0.942213,-3.94476 -2.971675,-4.792717 -1.386004,-0.57911 -2.670712,-0.50907 -4.114724,0.22433 -3.242632,1.646907 -3.885616,3.784297 -2.070271,6.881947 1.41938,2.42199 3.85568,3.36671 6.178923,2.396 z m 73.64232,-0.20771 c 0.86942,-0.45976 1.34669,-0.9675 1.89369,-2.01459 1.3575,-2.59854 0.80826,-5.00733 -1.55226,-6.807787 -0.84876,-0.64738 -1.21733,-0.74808 -2.74021,-0.74869 -1.47719,-6e-4 -1.93623,0.1161 -2.86057,0.72719 -3.39265,2.242927 -2.70821,7.625617 1.14924,9.038057 1.53048,0.56039 2.79627,0.50059 4.11011,-0.19418 z m -46.455195,-3.61866 v -3.175 H 77.31734 66.727958 l -0.02239,1.91823 c -0.01326,1.13544 -0.199021,2.3346 -0.455215,2.93853 -0.238052,0.56116 -0.367053,1.12671 -0.286671,1.25677 0.08203,0.13272 4.92797,0.23647 11.044597,0.23647 h 10.898446 z m 5.95312,-0.16914 v -3.34415 l -1.32922,0.15743 c -0.73107,0.0866 -1.44545,0.22926 -1.5875,0.31705 -0.14363,0.0888 -0.25828,1.50331 -0.25828,3.18672 v 3.02709 h 1.5875 1.5875 z m 6.350005,0.16914 v -3.175 h -1.587505 -1.5875 l -0.004,2.57969 c -0.002,1.41883 -0.0754,2.84758 -0.16315,3.175 -0.15368,0.57346 -0.0953,0.59531 1.59111,0.59531 h 1.750655 z m 24.59688,2.71198 c -0.005,-0.10914 -0.17953,-0.49609 -0.3875,-0.85989 -0.43566,-0.7621 -0.5183,-3.35036 -0.13884,-4.3484 l 0.25803,-0.67869 -10.04761,-0.0472 c -5.52619,-0.026 -10.31551,-0.0558 -10.64293,-0.0662 -0.58059,-0.0184 -0.59716,0.058 -0.66986,3.08996 l -0.0745,3.10885 h 10.85631 c 5.97097,0 10.85209,-0.0893 10.84694,-0.19844 z M 87.774425,87.699453 c 0,-6.09997 0.0723,-11.27919 0.1606,-11.50938 0.14499,-0.37782 -0.999901,-0.41851 -11.773954,-0.41851 H 64.226514 v 10.9976 c 0,7.07495 0.09769,11.18014 0.273892,11.50938 0.26434,0.49392 0.67497,0.51177 11.773958,0.51177 h 11.500061 z m -13.931368,3.9656 c -3.251711,-1.47647 -3.263021,-6.34123 -0.01935,-8.32546 2.132255,-1.30435 4.094647,-0.97282 6.004925,1.01448 0.833935,0.86756 0.925492,1.11727 1.002642,2.73456 0.07047,1.47724 -0.01899,1.9588 -0.526257,2.83274 -1.210015,2.08469 -4.033195,2.84649 -6.461955,1.74368 z m 3.481598,-2.50925 c 1.226729,-1.22673 1.046721,-2.74364 -0.436614,-3.6793 -0.66645,-0.42039 -1.791132,0.0351 -2.349996,0.95164 -0.707479,1.16032 -0.656611,1.68488 0.251449,2.59294 0.940634,0.94063 1.689458,0.98043 2.535161,0.13472 z m 16.66748,-1.87466 v -11.50933 l -1.65364,-1.2e-4 -1.65365,-1.3e-4 v 11.50937 11.50938 l 1.65365,8e-5 1.65364,8e-5 z m 6.217715,-2.1e-4 v -11.50937 h -1.546095 -1.5461 l -0.1834,10.64948 c -0.10087,5.85721 -0.10462,11.03643 -0.008,11.50937 0.1736,0.8527 0.18808,0.8599 1.7295,0.8599 h 1.554425 z m 26.34845,10.85086 c 0.38939,-0.59428 0.41251,-1.71061 0.237,-11.44323 l -0.19449,-10.78471 -11.74027,-0.0808 -11.74027,-0.0808 v 11.52403 11.52402 h 11.50328 11.50327 z m -13.88877,-6.32236 c -1.89466,-0.68501 -3.18518,-3.29317 -2.69935,-5.45543 0.33026,-1.46987 1.30992,-2.66249 2.79724,-3.40529 3.99475,-1.99507 8.16862,2.30684 6.25694,6.44889 -1.12806,2.44418 -3.63439,3.3954 -6.35483,2.41183 z m 3.39612,-2.97668 c 0.66485,-0.84522 0.70239,-1.87046 0.10069,-2.74972 -0.63254,-0.92429 -0.91633,-1.07763 -1.66899,-0.90178 -1.09289,0.25533 -1.85208,1.15505 -1.85208,2.1949 0,1.97195 2.25846,2.93374 3.42038,1.4566 z m -59.115177,7.38193 c 0.682272,-0.24993 1.622424,-0.34402 2.645833,-0.2648 l 1.5875,0.12288 v -10.15065 -10.15065 l -3.269453,5e-5 c -2.8726,4e-5 -3.24996,0.0508 -3.108854,0.41856 0.08833,0.23019 0.160599,5.00542 0.160599,10.61164 0,9.60611 0.02667,10.18183 0.463021,9.99689 0.254661,-0.10793 0.93927,-0.37069 1.521354,-0.58392 z m 78.730197,-0.26864 c 0.11432,-4.99481 0.13366,-15.3492 0.0326,-17.4625 l -0.12968,-2.71198 h -3.0025 -3.0025 v 5.91087 c 0,3.25097 0.0777,7.8819 0.17275,10.29095 l 0.17275,4.38009 2.01006,-0.12964 c 1.10696,-0.0714 2.30726,-0.007 2.67153,0.14331 0.97927,0.40411 1.05679,0.37374 1.07498,-0.4211 z M 61.08796,72.706333 c 0.125476,-0.0776 0.228137,-1.02694 0.228137,-2.10976 v -1.96876 l -3.241145,-6.2e-4 -3.241146,-6.2e-4 0.08668,2.28811 0.08668,2.28811 2.92633,-0.17773 c 1.609482,-0.0978 3.028992,-0.24119 3.154467,-0.31873 z m 22.278588,0.24555 4.407877,-0.17384 v -1.94282 -1.94283 l -11.178641,-0.004 c -6.148255,-0.002 -11.446536,-0.0754 -11.773958,-0.16315 -0.583645,-0.15641 -0.595312,-0.11486 -0.595312,2.12028 v 2.27982 h 7.366076 c 4.051342,0 9.349623,-0.0782 11.773958,-0.17385 z m 10.660057,-0.42147 c -0.0877,-0.32742 -0.16116,-1.33945 -0.16315,-2.24895 l -0.004,-1.65365 h -1.05833 c -0.65914,0 -1.06621,0.12475 -1.07922,0.33073 -0.0167,0.26458 -0.0476,0.26458 -0.15434,0 -0.0734,-0.1819 -0.30213,-0.33073 -0.50828,-0.33073 -0.29398,0 -0.37483,0.48507 -0.37483,2.24896 v 2.24896 h 1.75065 c 1.68637,0 1.7448,-0.0219 1.59112,-0.59532 z m 6.183245,-1.62336 v -2.21867 l -1.719745,0.0359 -1.71975,0.0359 -5e-5,2.18281 -4e-5,2.18282 h 1.71979 1.719795 z m 26.53081,0.0581 c 0.083,-1.21115 0.13044,-2.20275 0.10538,-2.20356 -0.0251,-8e-4 -5.37361,0.0307 -11.88567,0.07 l -11.8401,0.0715 v 1.28448 c 0,0.70646 0.0686,1.62678 0.1524,2.04516 l 0.1524,0.76067 11.58233,0.0869 11.58233,0.0869 z m 8.92336,-0.12718 v -2.28778 l -2.0243,0.17112 c -1.11336,0.0941 -2.48258,0.17111 -3.0427,0.17111 h -1.01842 v 2.11667 2.11667 h 3.04271 3.04271 z m -74.675535,-15.21595 -0.06926,-10.03728 -2.116667,-0.0607 c -1.332747,-0.0382 -2.435134,-0.22221 -2.976562,-0.49673 L 54.9661,44.591323 v 10.14454 c 0,5.57949 -0.07443,10.33849 -0.165395,10.57555 -0.147755,0.38504 0.177088,0.42658 3.045825,0.38946 l 3.211219,-0.0415 z m 26.78594,-1.17248 v -11.13556 l -11.264772,-0.17399 c -11.115838,-0.17168 -12.054278,-0.12031 -12.343861,0.67579 -0.06764,0.18594 -0.06574,5.19845 0.0042,11.13891 l 0.127191,10.80083 11.73861,-0.0852 11.738612,-0.0852 z m -14.154453,4.04561 c -1.42431,-0.80665 -2.362713,-2.52256 -2.362934,-4.32073 -3.25e-4,-2.63786 2.09903,-4.5778 4.968031,-4.5908 1.692907,-0.008 2.870835,0.58608 3.787812,1.90928 0.625766,0.90298 0.75009,1.353 0.75009,2.71512 0,1.35223 -0.125633,1.81403 -0.73124,2.68793 -1.493923,2.15573 -4.225927,2.83714 -6.411759,1.5992 z m 3.594053,-2.6419 c 0.527465,-0.40497 1.035405,-1.34332 1.035405,-1.91277 0,-0.56767 -1.420219,-1.98142 -1.990481,-1.98142 -0.244027,0 -0.857457,0.41378 -1.363177,0.9195 -0.718224,0.71822 -0.879521,1.05123 -0.736882,1.52135 0.455376,1.50087 2.022354,2.24629 3.055135,1.45334 z m 16.71197,9.53342 c -0.0364,-0.10914 -0.0661,-5.19907 -0.0661,-11.31094 v -11.1125 h -1.5875 -1.5875 v 11.38971 11.3897 l 1.65364,-0.0788 c 0.90951,-0.0433 1.62388,-0.16806 1.5875,-0.2772 z m 6.367105,-0.46302 c -0.027,-0.36381 -0.0618,-5.45373 -0.0774,-11.31094 l -0.0284,-10.64948 h -1.576205 -1.5762 v 11.38971 11.3897 l 1.65365,-0.0788 c 1.581785,-0.0753 1.651515,-0.10751 1.604605,-0.74022 z m 26.46426,-6.94532 c 0.28118,-12.47498 0.25394,-13.80368 -0.29307,-14.29872 -0.41151,-0.37241 -1.85935,-0.4337 -11.90634,-0.50403 l -11.43786,-0.0801 9e-5,11.31094 9e-5,11.31093 h 11.73133 11.73133 z m -14.03904,0.68697 c -2.71348,-0.96084 -3.79471,-4.5326 -2.17724,-7.19231 1.03311,-1.69882 4.54267,-2.69649 6.28452,-1.78651 3.80986,1.99037 3.49165,7.32338 -0.53742,9.00683 -1.19378,0.49879 -2.10228,0.49167 -3.56986,-0.028 z m 3.56169,-3.08383 c 0.57783,-0.57784 0.49045,-2.26064 -0.15068,-2.90177 -0.77064,-0.77065 -2.13295,-0.67429 -2.88875,0.20432 -0.74847,0.8701 -0.7561,1.70969 -0.024,2.64042 0.49836,0.63357 0.70573,0.70829 1.6239,0.58514 0.57892,-0.0777 1.22669,-0.3153 1.43951,-0.52811 z m 19.42682,5.83645 c 0.10024,-10.06683 0.0801,-16.86515 -0.0501,-16.86613 -0.0768,-5.8e-4 -0.43394,0.20553 -0.79375,0.45804 -0.48881,0.34304 -1.19568,0.46008 -2.79632,0.46302 l -2.14215,0.004 -0.17296,6.32669 c -0.0951,3.47969 -0.17296,8.03383 -0.17296,10.12032 v 3.79361 h 3.04271 3.04271 z m -75.291434,-19.1089 c 2.98618,-0.8868 4.370863,-4.01682 3.046461,-6.88641 -1.109578,-2.40413 -3.311228,-3.29654 -6.172439,-2.5019 -2.095344,0.58193 -3.822102,2.90081 -3.56843,4.79208 0.313537,2.33759 1.736182,4.0924 3.828513,4.72241 1.062428,0.3199 1.416245,0.30432 2.865895,-0.12618 z m 73.528834,-0.13084 c 1.5328,-0.73696 1.8802,-1.08074 2.65896,-2.63121 0.77421,-1.54143 0.74145,-2.52254 -0.14176,-4.24435 -0.89546,-1.7457 -2.73906,-2.92272 -4.57793,-2.92272 -1.26962,0 -3.64681,1.28502 -4.35514,2.35423 -1.13334,1.71075 -0.57367,5.04654 1.11247,6.63058 0.74086,0.69601 2.34639,1.30844 3.45131,1.31651 0.43657,0.003 1.27,-0.22317 1.85209,-0.50304 z m -46.169805,-5.30037 v -3.175 H 79.34841 c -4.634311,0 -9.496284,0.076 -10.804384,0.16883 l -2.378363,0.16882 0.38099,1.08795 c 0.260717,0.7445 0.336941,1.6935 0.241454,3.00618 l -0.139537,1.91822 H 77.2115 87.774425 Z m 6.08542,-0.0132 v -3.1882 l -1.52135,0.0793 -1.52136,0.0794 -0.0745,3.10886 -0.0745,3.10885 h 1.5959 1.5959 z m -2.49159,-2.33253 c -0.11398,-0.18442 -0.13578,-0.40676 -0.0484,-0.49409 0.23679,-0.23679 0.49497,0.11147 0.36707,0.49515 -0.0896,0.26887 -0.15194,0.26866 -0.31863,-0.001 z m 8.841595,2.34573 v -3.175 h -1.587505 -1.5875 v 3.175 3.175 h 1.5875 1.587505 z m 20.81782,2.91042 h 3.26935 l -0.20348,-0.7276 c -0.32468,-1.16102 -0.1411,-2.8606 0.42989,-3.97983 l 0.52785,-1.03467 -6.66603,-0.18489 c -7.2266,-0.20043 -14.35348,-0.187 -14.91402,0.0281 -0.37632,0.14441 -0.5067,4.36378 -0.17334,5.60966 l 0.17038,0.63681 7.14503,-0.17379 c 3.92976,-0.0956 8.61623,-0.17378 10.41437,-0.17378 z m -77.026777,32.48487 c -0.522607,-0.74612 -0.529957,-1.895 -0.01486,-2.32249 0.218361,-0.18123 0.923684,-0.38886 1.567384,-0.46142 1.00192,-0.11293 1.26846,-0.0338 1.851938,0.54966 0.885281,0.88528 0.859408,1.3027 -0.132476,2.13731 -1.072924,0.90281 -2.674306,0.95025 -3.271988,0.0969 z m 100.135727,0.19832 c -0.17789,-0.21434 -0.32343,-0.81288 -0.32343,-1.33007 0,-0.51719 0.14554,-1.11573 0.32343,-1.33007 0.48327,-0.5823 2.19659,-0.49659 2.77147,0.13865 0.60368,0.66706 0.58458,2.12012 -0.0338,2.5723 -0.6297,0.46045 -2.3397,0.42871 -2.73767,-0.0508 z"
       id="path2"
       sodipodi:nodetypes="cscccsssscsssscssscsssssscccssssccsssssscssssccssscsssscssccsssssssssssssccccssssccccscscccccccccsscccsscccccsccscscssscsssssssssscsscccccccccccccscsccsscccccccssssssssssssscccssssssscccsccssssssccccccsscccccsscscccccssssscscccccccccccssccsccccsccsscccccccccscsscccccsscccccsscsssssssssscsccccccccccccccccccssccccccssssssssssscssssscccscccssssssssssssscsccsccsscccccccccccccsccsscccccccccccsscsssccsccsscsccsssssss" /><text
       xml:space="preserve"
       style="font-size:3.175px;font-family:Arial;-inkscape-font-specification:'Arial, Normal';text-align:start;writing-mode:lr-tb;direction:ltr;text-anchor:start;fill:#000000;stroke-width:0.499999;stroke-dasharray:2, 1"
       x="161.60059"
       y="84.193146"
       id="text2"><tspan
         sodipodi:role="line"
         id="tspan2"
         x="161.60059"
         y="84.193146"
         style="font-style:normal;font-variant:normal;font-weight:normal;font-stretch:normal;font-size:50.8px;font-family:'Comic Sans MS';-inkscape-font-specification:'Comic Sans MS, Normal';font-variant-ligatures:normal;font-variant-caps:normal;font-variant-numeric:normal;font-variant-east-asian:normal;stroke-width:0.5">Goprecond</tspan></text></g></svg>
