<?xml version="1.0"?>
<!-- Generated by SVGo and Plotinum VG -->
<svg width="288pt" height="288pt" viewBox="0 0 288 288"
	xmlns="http://www.w3.org/2000/svg"
	xmlns:xlink="http://www.w3.org/1999/xlink">
<g transform="scale(1, -1) translate(0, -288)">
<path d="M0,0L288,0L288,288L0,288Z" style="fill:#FFFFFF" />
<text x="29.58" y="-3.252" transform="scale(1, -1)"
	style="font-family:Liberation Serif;font-variant:normal;font-weight:normal;font-style:normal;font-size:10px">0</text>
<text x="103.87" y="-3.252" transform="scale(1, -1)"
	style="font-family:Liberation Serif;font-variant:normal;font-weight:normal;font-style:normal;font-size:10px">30</text>
<text x="180.67" y="-3.252" transform="scale(1, -1)"
	style="font-family:Liberation Serif;font-variant:normal;font-weight:normal;font-style:normal;font-size:10px">60</text>
<text x="257.46" y="-3.252" transform="scale(1, -1)"
	style="font-family:Liberation Serif;font-variant:normal;font-weight:normal;font-style:normal;font-size:10px">90</text>
<path d="M32.08,11.074L32.08,19.074" style="fill:none;stroke:#000000;stroke-width:0.5" />
<path d="M108.87,11.074L108.87,19.074" style="fill:none;stroke:#000000;stroke-width:0.5" />
<path d="M185.67,11.074L185.67,19.074" style="fill:none;stroke:#000000;stroke-width:0.5" />
<path d="M262.46,11.074L262.46,19.074" style="fill:none;stroke:#000000;stroke-width:0.5" />
<path d="M57.678,15.074L57.678,19.074" style="fill:none;stroke:#000000;stroke-width:0.5" />
<path d="M83.276,15.074L83.276,19.074" style="fill:none;stroke:#000000;stroke-width:0.5" />
<path d="M134.47,15.074L134.47,19.074" style="fill:none;stroke:#000000;stroke-width:0.5" />
<path d="M160.07,15.074L160.07,19.074" style="fill:none;stroke:#000000;stroke-width:0.5" />
<path d="M211.27,15.074L211.27,19.074" style="fill:none;stroke:#000000;stroke-width:0.5" />
<path d="M236.86,15.074L236.86,19.074" style="fill:none;stroke:#000000;stroke-width:0.5" />
<path d="M32.08,19.074L285.5,19.074" style="fill:none;stroke:#000000;stroke-width:0.5" />
<text x="0" y="-47.779" transform="scale(1, -1)"
	style="font-family:Liberation Serif;font-variant:normal;font-weight:normal;font-style:normal;font-size:10px">-90</text>
<text x="0" y="-125.25" transform="scale(1, -1)"
	style="font-family:Liberation Serif;font-variant:normal;font-weight:normal;font-style:normal;font-size:10px">-60</text>
<text x="0" y="-202.71" transform="scale(1, -1)"
	style="font-family:Liberation Serif;font-variant:normal;font-weight:normal;font-style:normal;font-size:10px">-30</text>
<text x="8.3301" y="-280.18" transform="scale(1, -1)"
	style="font-family:Liberation Serif;font-variant:normal;font-weight:normal;font-style:normal;font-size:10px">0</text>
<path d="M15.83,50.064L23.83,50.064" style="fill:none;stroke:#000000;stroke-width:0.5" />
<path d="M15.83,127.53L23.83,127.53" style="fill:none;stroke:#000000;stroke-width:0.5" />
<path d="M15.83,205L23.83,205" style="fill:none;stroke:#000000;stroke-width:0.5" />
<path d="M15.83,282.46L23.83,282.46" style="fill:none;stroke:#000000;stroke-width:0.5" />
<path d="M19.83,75.886L23.83,75.886" style="fill:none;stroke:#000000;stroke-width:0.5" />
<path d="M19.83,101.71L23.83,101.71" style="fill:none;stroke:#000000;stroke-width:0.5" />
<path d="M19.83,153.35L23.83,153.35" style="fill:none;stroke:#000000;stroke-width:0.5" />
<path d="M19.83,179.17L23.83,179.17" style="fill:none;stroke:#000000;stroke-width:0.5" />
<path d="M19.83,230.82L23.83,230.82" style="fill:none;stroke:#000000;stroke-width:0.5" />
<path d="M19.83,256.64L23.83,256.64" style="fill:none;stroke:#000000;stroke-width:0.5" />
<path d="M23.83,26.824L23.83,282.46" style="fill:none;stroke:#000000;stroke-width:0.5" />
<path d="M239.85,241.6L244.12,241.6L244.12,245.86L239.85,245.86Z"  />
<path d="M183.53,68.588L187.8,68.588L187.8,72.856L183.53,72.856Z"  />
<path d="M247.53,60.841L251.8,60.841L251.8,65.109L247.53,65.109Z"  />
<path d="M186.09,122.81L190.36,122.81L190.36,127.08L186.09,127.08Z"  />
<path d="M221.93,184.79L226.2,184.79L226.2,189.06L221.93,189.06Z"  />
<path d="M216.81,91.828L221.08,91.828L221.08,96.096L216.81,96.096Z"  />
<path d="M280.81,143.47L285.07,143.47L285.07,147.74L280.81,147.74Z"  />
<path d="M55.544,63.423L59.812,63.423L59.812,67.691L55.544,67.691Z"  />
<path d="M201.45,117.65L205.72,117.65L205.72,121.92L201.45,121.92Z"  />
<path d="M124.66,86.663L128.93,86.663L128.93,90.931L124.66,90.931Z"  />
<path d="M140.02,192.53L144.29,192.53L144.29,196.8L140.02,196.8Z"  />
<path d="M188.65,120.23L192.92,120.23L192.92,124.5L188.65,124.5Z"  />
<path d="M142.58,249.34L146.85,249.34L146.85,253.61L142.58,253.61Z"  />
<path d="M211.69,143.47L215.96,143.47L215.96,147.74L211.69,147.74Z"  />
<path d="M214.25,156.38L218.52,156.38L218.52,160.65L214.25,160.65Z"  />
<path d="M191.21,117.65L195.48,117.65L195.48,121.92L191.21,121.92Z"  />
<path d="M106.74,202.86L111.01,202.86L111.01,207.13L106.74,207.13Z"  />
<path d="M37.626,272.58L41.893,272.58L41.893,276.85L37.626,276.85Z"  />
<path d="M122.1,187.37L126.37,187.37L126.37,191.64L122.1,191.64Z"  />
<path d="M88.822,146.05L93.089,146.05L93.089,150.32L88.822,150.32Z"  />
<path d="M99.061,189.95L103.33,189.95L103.33,194.22L99.061,194.22Z"  />
<path d="M96.501,213.19L100.77,213.19L100.77,217.46L96.501,217.46Z"  />
<path d="M255.21,53.095L259.48,53.095L259.48,57.362L255.21,57.362Z"  />
<path d="M147.7,187.37L151.96,187.37L151.96,191.64L147.7,191.64Z"  />
<path d="M242.41,177.04L246.68,177.04L246.68,181.31L242.41,181.31Z"  />
<path d="M247.53,197.7L251.8,197.7L251.8,201.97L247.53,201.97Z"  />
<path d="M50.425,259.67L54.692,259.67L54.692,263.94L50.425,263.94Z"  />
<path d="M104.18,228.68L108.45,228.68L108.45,232.95L104.18,232.95Z"  />
<path d="M104.18,205.44L108.45,205.44L108.45,209.71L104.18,209.71Z"  />
<path d="M119.54,210.61L123.81,210.61L123.81,214.88L119.54,214.88Z"  />
<path d="M42.745,189.95L47.013,189.95L47.013,194.22L42.745,194.22Z"  />
<path d="M70.903,239.01L75.171,239.01L75.171,243.28L70.903,243.28Z"  />
<path d="M157.94,151.22L162.2,151.22L162.2,155.49L157.94,155.49Z"  />
<path d="M129.78,195.12L134.05,195.12L134.05,199.38L129.78,199.38Z"  />
<path d="M237.29,71.17L241.56,71.17L241.56,75.438L237.29,75.438Z"  />
<path d="M237.29,29.855L241.56,29.855L241.56,34.123L237.29,34.123Z"  />
<path d="M99.061,210.61L103.33,210.61L103.33,214.88L99.061,214.88Z"  />
<path d="M186.09,60.841L190.36,60.841L190.36,65.109L186.09,65.109Z"  />
<path d="M63.224,239.01L67.491,239.01L67.491,243.28L63.224,243.28Z"  />
<path d="M58.104,32.437L62.372,32.437L62.372,36.705L58.104,36.705Z"  />
<path d="M206.57,32.437L210.84,32.437L210.84,36.705L206.57,36.705Z"  />
<path d="M221.93,91.828L226.2,91.828L226.2,96.096L221.93,96.096Z"  />
<path d="M168.18,76.335L172.44,76.335L172.44,80.602L168.18,80.602Z"  />
<path d="M78.582,236.43L82.85,236.43L82.85,240.7L78.582,240.7Z"  />
<path d="M129.78,40.184L134.05,40.184L134.05,44.451L129.78,44.451Z"  />
<path d="M114.42,208.03L118.69,208.03L118.69,212.29L114.42,212.29Z"  />
<path d="M219.37,73.752L223.64,73.752L223.64,78.02L219.37,78.02Z"  />
<path d="M119.54,267.42L123.81,267.42L123.81,271.69L119.54,271.69Z"  />
<path d="M55.544,254.51L59.812,254.51L59.812,258.77L55.544,258.77Z"  />
<path d="M47.865,63.423L52.133,63.423L52.133,67.691L47.865,67.691Z"  />
<path d="M178.41,81.499L182.68,81.499L182.68,85.767L178.41,85.767Z"  />
<path d="M173.29,259.67L177.56,259.67L177.56,263.94L173.29,263.94Z"  />
<path d="M257.77,35.019L262.04,35.019L262.04,39.287L257.77,39.287Z"  />
<path d="M242.41,66.006L246.68,66.006L246.68,70.273L242.41,70.273Z"  />
<path d="M40.185,96.992L44.453,96.992L44.453,101.26L40.185,101.26Z"  />
<path d="M150.26,270L154.52,270L154.52,274.27L150.26,274.27Z"  />
<path d="M268.01,179.62L272.28,179.62L272.28,183.89L268.01,183.89Z"  />
<path d="M93.941,73.752L98.209,73.752L98.209,78.02L93.941,78.02Z"  />
<path d="M127.22,202.86L131.49,202.86L131.49,207.13L127.22,207.13Z"  />
<path d="M170.74,257.09L175,257.09L175,261.36L170.74,261.36Z"  />
<path d="M145.14,66.006L149.4,66.006L149.4,70.273L145.14,70.273Z"  />
<path d="M191.21,107.32L195.48,107.32L195.48,111.59L191.21,111.59Z"  />
<path d="M124.66,249.34L128.93,249.34L128.93,253.61L124.66,253.61Z"  />
<path d="M60.664,249.34L64.932,249.34L64.932,253.61L60.664,253.61Z"  />
<path d="M124.66,184.79L128.93,184.79L128.93,189.06L124.66,189.06Z"  />
<path d="M140.02,264.84L144.29,264.84L144.29,269.1L140.02,269.1Z"  />
<path d="M104.18,148.64L108.45,148.64L108.45,152.9L104.18,152.9Z"  />
<path d="M270.57,218.36L274.83,218.36L274.83,222.62L270.57,222.62Z"  />
<path d="M216.81,86.663L221.08,86.663L221.08,90.931L216.81,90.931Z"  />
<path d="M216.81,76.335L221.08,76.335L221.08,80.602L216.81,80.602Z"  />
<path d="M160.5,148.64L164.76,148.64L164.76,152.9L160.5,152.9Z"  />
<path d="M114.42,179.62L118.69,179.62L118.69,183.89L114.42,183.89Z"  />
<path d="M196.33,277.75L200.6,277.75L200.6,282.01L196.33,282.01Z"  />
<path d="M142.58,166.71L146.85,166.71L146.85,170.98L142.58,170.98Z"  />
<path d="M52.984,140.89L57.252,140.89L57.252,145.16L52.984,145.16Z"  />
<path d="M111.86,53.095L116.13,53.095L116.13,57.362L111.86,57.362Z"  />
<path d="M247.53,122.81L251.8,122.81L251.8,127.08L247.53,127.08Z"  />
<path d="M173.29,127.98L177.56,127.98L177.56,132.25L173.29,132.25Z"  />
<path d="M180.97,135.73L185.24,135.73L185.24,139.99L180.97,139.99Z"  />
<path d="M78.582,231.27L82.85,231.27L82.85,235.53L78.582,235.53Z"  />
<path d="M37.626,109.9L41.893,109.9L41.893,114.17L37.626,114.17Z"  />
<path d="M109.3,153.8L113.57,153.8L113.57,158.07L109.3,158.07Z"  />
<path d="M88.822,89.246L93.089,89.246L93.089,93.513L88.822,93.513Z"  />
<path d="M127.22,182.21L131.49,182.21L131.49,186.47L127.22,186.47Z"  />
<path d="M275.69,32.437L279.95,32.437L279.95,36.705L275.69,36.705Z"  />
<path d="M273.13,50.512L277.39,50.512L277.39,54.78L273.13,54.78Z"  />
<path d="M45.305,264.84L49.573,264.84L49.573,269.1L45.305,269.1Z"  />
<path d="M250.09,94.41L254.36,94.41L254.36,98.678L250.09,98.678Z"  />
<path d="M268.01,47.93L272.28,47.93L272.28,52.198L268.01,52.198Z"  />
<path d="M50.425,239.01L54.692,239.01L54.692,243.28L50.425,243.28Z"  />
<path d="M58.104,109.9L62.372,109.9L62.372,114.17L58.104,114.17Z"  />
<path d="M45.305,99.574L49.573,99.574L49.573,103.84L45.305,103.84Z"  />
<path d="M214.25,58.259L218.52,58.259L218.52,62.527L214.25,62.527Z"  />
<path d="M244.97,63.423L249.24,63.423L249.24,67.691L244.97,67.691Z"  />
<path d="M106.74,213.19L111.01,213.19L111.01,217.46L106.74,217.46Z"  />
<path d="M116.98,192.53L121.25,192.53L121.25,196.8L116.98,196.8Z"  />
<path d="M262.89,45.348L267.16,45.348L267.16,49.616L262.89,49.616Z"  />
<path d="M239.85,68.588L244.12,68.588L244.12,72.856L239.85,72.856Z"  />
<path d="M270.57,37.601L274.83,37.601L274.83,41.869L270.57,41.869Z"  />
<path d="M101.62,71.17L105.89,71.17L105.89,75.438L101.62,75.438Z"  />
<path d="M283.37,280.33L287.63,280.33L287.63,284.6L283.37,284.6Z"  />
<path d="M63.224,246.76L67.491,246.76L67.491,251.03L63.224,251.03Z"  />
<path d="M198.89,272.58L203.16,272.58L203.16,276.85L198.89,276.85Z"  />
<path d="M175.85,133.14L180.12,133.14L180.12,137.41L175.85,137.41Z"  />
<path d="M257.77,50.512L262.04,50.512L262.04,54.78L257.77,54.78Z"  />
<path d="M101.62,195.12L105.89,195.12L105.89,199.38L101.62,199.38Z"  />
<path d="M111.86,60.841L116.13,60.841L116.13,65.109L111.86,65.109Z"  />
<path d="M198.89,109.9L203.16,109.9L203.16,114.17L198.89,114.17Z"  />
<path d="M278.25,29.855L282.51,29.855L282.51,34.123L278.25,34.123Z"  />
<path d="M191.21,84.081L195.48,84.081L195.48,88.349L191.21,88.349Z"  />
<path d="M211.69,270L215.96,270L215.96,274.27L211.69,274.27Z"  />
<path d="M163.06,226.1L167.32,226.1L167.32,230.37L163.06,230.37Z"  />
<path d="M83.702,146.05L87.97,146.05L87.97,150.32L83.702,150.32Z"  />
<path d="M234.73,73.752L239,73.752L239,78.02L234.73,78.02Z"  />
<path d="M239.85,125.4L244.12,125.4L244.12,129.66L239.85,129.66Z"  />
<path d="M83.702,226.1L87.97,226.1L87.97,230.37L83.702,230.37Z"  />
<path d="M68.343,215.77L72.611,215.77L72.611,220.04L68.343,220.04Z"  />
<path d="M227.05,81.499L231.32,81.499L231.32,85.767L227.05,85.767Z"  />
<path d="M178.41,84.081L182.68,84.081L182.68,88.349L178.41,88.349Z"  />
<path d="M58.104,251.92L62.372,251.92L62.372,256.19L58.104,256.19Z"  />
<path d="M232.17,91.828L236.44,91.828L236.44,96.096L232.17,96.096Z"  />
<path d="M160.5,205.44L164.76,205.44L164.76,209.71L160.5,209.71Z"  />
<path d="M32.506,112.49L36.774,112.49L36.774,116.75L32.506,116.75Z"  />
<path d="M201.45,107.32L205.72,107.32L205.72,111.59L201.45,111.59Z"  />
<path d="M137.46,27.273L141.73,27.273L141.73,31.54L137.46,31.54Z"  />
<path d="M109.3,200.28L113.57,200.28L113.57,204.55L109.3,204.55Z"  />
<path d="M255.21,197.7L259.48,197.7L259.48,201.97L255.21,201.97Z"  />
<path d="M211.69,96.992L215.96,96.992L215.96,101.26L211.69,101.26Z"  />
<path d="M101.62,208.03L105.89,208.03L105.89,212.29L101.62,212.29Z"  />
<path d="M32.506,277.75L36.774,277.75L36.774,282.01L32.506,282.01Z"  />
<path d="M219.37,220.94L223.64,220.94L223.64,225.21L219.37,225.21Z"  />
<path d="M170.74,138.31L175,138.31L175,142.58L170.74,142.58Z"  />
<path d="M147.7,104.74L151.96,104.74L151.96,109.01L147.7,109.01Z"  />
<path d="M265.45,35.019L269.72,35.019L269.72,39.287L265.45,39.287Z"  />
<path d="M35.066,171.88L39.334,171.88L39.334,176.14L35.066,176.14Z"  />
<path d="M268.01,40.184L272.28,40.184L272.28,44.451L268.01,44.451Z"  />
<path d="M106.74,182.21L111.01,182.21L111.01,186.47L106.74,186.47Z"  />
<path d="M60.664,184.79L64.932,184.79L64.932,189.06L60.664,189.06Z"  />
<path d="M170.74,133.14L175,133.14L175,137.41L170.74,137.41Z"  />
<path d="M273.13,42.766L277.39,42.766L277.39,47.034L273.13,47.034Z"  />
<path d="M229.61,78.917L233.88,78.917L233.88,83.184L229.61,83.184Z"  />
<path d="M29.946,24.69L34.214,24.69L34.214,28.958L29.946,28.958Z"  />
<path d="M175.85,104.74L180.12,104.74L180.12,109.01L175.85,109.01Z"  />
<path d="M76.023,233.85L80.29,233.85L80.29,238.12L76.023,238.12Z"  />
<path d="M229.61,223.52L233.88,223.52L233.88,227.79L229.61,227.79Z"  />
<path d="M152.82,254.51L157.08,254.51L157.08,258.77L152.82,258.77Z"  />
<path d="M155.38,228.68L159.64,228.68L159.64,232.95L155.38,232.95Z"  />
<path d="M234.73,215.77L239,215.77L239,220.04L234.73,220.04Z"  />
<path d="M42.745,115.07L47.013,115.07L47.013,119.34L42.745,119.34Z"  />
<path d="M214.25,94.41L218.52,94.41L218.52,98.678L214.25,98.678Z"  />
<path d="M119.54,189.95L123.81,189.95L123.81,194.22L119.54,194.22Z"  />
<path d="M224.49,84.081L228.76,84.081L228.76,88.349L224.49,88.349Z"  />
<path d="M73.463,236.43L77.731,236.43L77.731,240.7L73.463,240.7Z"  />
<path d="M73.463,231.27L77.731,231.27L77.731,235.53L73.463,235.53Z"  />
<path d="M137.46,275.16L141.73,275.16L141.73,279.43L137.46,279.43Z"  />
<path d="M35.066,275.16L39.334,275.16L39.334,279.43L35.066,279.43Z"  />
<path d="M86.262,174.46L90.529,174.46L90.529,178.73L86.262,178.73Z"  />
<path d="M193.77,218.36L198.04,218.36L198.04,222.62L193.77,222.62Z"  />
<path d="M183.53,233.85L187.8,233.85L187.8,238.12L183.53,238.12Z"  />
<path d="M275.69,102.16L279.95,102.16L279.95,106.42L275.69,106.42Z"  />
<path d="M145.14,42.766L149.4,42.766L149.4,47.034L145.14,47.034Z"  />
<path d="M278.25,71.17L282.51,71.17L282.51,75.438L278.25,75.438Z"  />
<path d="M196.33,112.49L200.6,112.49L200.6,116.75L196.33,116.75Z"  />
<path d="M68.343,68.588L72.611,68.588L72.611,72.856L68.343,72.856Z"  />
<path d="M76.023,125.4L80.29,125.4L80.29,129.66L76.023,129.66Z"  />
<path d="M47.865,200.28L52.133,200.28L52.133,204.55L47.865,204.55Z"  />
<path d="M81.142,205.44L85.41,205.44L85.41,209.71L81.142,209.71Z"  />
<path d="M168.18,140.89L172.44,140.89L172.44,145.16L168.18,145.16Z"  />
<path d="M168.18,257.09L172.44,257.09L172.44,261.36L168.18,261.36Z"  />
<path d="M242.41,164.13L246.68,164.13L246.68,168.4L242.41,168.4Z"  />
<path d="M132.34,66.006L136.61,66.006L136.61,70.273L132.34,70.273Z"  />
<path d="M137.46,171.88L141.73,171.88L141.73,176.14L137.46,176.14Z"  />
<path d="M262.89,78.917L267.16,78.917L267.16,83.184L262.89,83.184Z"  />
<path d="M260.33,47.93L264.6,47.93L264.6,52.198L260.33,52.198Z"  />
<path d="M252.65,107.32L256.92,107.32L256.92,111.59L252.65,111.59Z"  />
<path d="M96.501,202.86L100.77,202.86L100.77,207.13L96.501,207.13Z"  />
<path d="M180.97,127.98L185.24,127.98L185.24,132.25L180.97,132.25Z"  />
<path d="M78.582,151.22L82.85,151.22L82.85,155.49L78.582,155.49Z"  />
<path d="M134.9,174.46L139.17,174.46L139.17,178.73L134.9,178.73Z"  />
<path d="M224.49,130.56L228.76,130.56L228.76,134.83L224.49,134.83Z"  />
<path d="M227.05,130.56L231.32,130.56L231.32,134.83L227.05,134.83Z"  />
<path d="M52.984,138.31L57.252,138.31L57.252,142.58L52.984,142.58Z"  />
<path d="M132.34,177.04L136.61,177.04L136.61,181.31L132.34,181.31Z"  />
<path d="M157.94,120.23L162.2,120.23L162.2,124.5L157.94,124.5Z"  />
<path d="M40.185,158.97L44.453,158.97L44.453,163.23L40.185,163.23Z"  />
<path d="M45.305,169.29L49.573,169.29L49.573,173.56L45.305,173.56Z"  />
<path d="M209.13,45.348L213.4,45.348L213.4,49.616L209.13,49.616Z"  />
<path d="M73.463,246.76L77.731,246.76L77.731,251.03L73.463,251.03Z"  />
<path d="M262.89,99.574L267.16,99.574L267.16,103.84L262.89,103.84Z"  />
<path d="M86.262,223.52L90.529,223.52L90.529,227.79L86.262,227.79Z"  />
<path d="M234.73,89.246L239,89.246L239,93.513L234.73,93.513Z"  />
<path d="M114.42,195.12L118.69,195.12L118.69,199.38L114.42,199.38Z"  />
<path d="M29.946,280.33L34.214,280.33L34.214,284.6L29.946,284.6Z"  />
<path d="M147.7,161.55L151.96,161.55L151.96,165.82L147.7,165.82Z"  />
<path d="M116.98,158.97L121.25,158.97L121.25,163.23L116.98,163.23Z"  />
<path d="M209.13,99.574L213.4,99.574L213.4,103.84L209.13,103.84Z"  />
<path d="M237.29,208.03L241.56,208.03L241.56,212.29L237.29,212.29Z"  />
<path d="M188.65,102.16L192.92,102.16L192.92,106.42L188.65,106.42Z"  />
<path d="M257.77,187.37L262.04,187.37L262.04,191.64L257.77,191.64Z"  />
<path d="M132.34,275.16L136.61,275.16L136.61,279.43L132.34,279.43Z"  />
<path d="M209.13,264.84L213.4,264.84L213.4,269.1L209.13,269.1Z"  />
<path d="M86.262,78.917L90.529,78.917L90.529,83.184L86.262,83.184Z"  />
<path d="M155.38,153.8L159.64,153.8L159.64,158.07L155.38,158.07Z"  />
<path d="M76.023,210.61L80.29,210.61L80.29,214.88L76.023,214.88Z"  />
<path d="M252.65,55.677L256.92,55.677L256.92,59.945L252.65,59.945Z"  />
<path d="M60.664,166.71L64.932,166.71L64.932,170.98L60.664,170.98Z"  />
<path d="M193.77,267.42L198.04,267.42L198.04,271.69L193.77,271.69Z"  />
<path d="M273.13,35.019L277.39,35.019L277.39,39.287L273.13,39.287Z"  />
<path d="M165.62,27.273L169.88,27.273L169.88,31.54L165.62,31.54Z"  />
<path d="M111.86,197.7L116.13,197.7L116.13,201.97L111.86,201.97Z"  />
<path d="M186.09,280.33L190.36,280.33L190.36,284.6L186.09,284.6Z"  />
<path d="M50.425,135.73L54.692,135.73L54.692,139.99L50.425,139.99Z"  />
<path d="M70.903,246.76L75.171,246.76L75.171,251.03L70.903,251.03Z"  />
<path d="M157.94,231.27L162.2,231.27L162.2,235.53L157.94,235.53Z"  />
<path d="M198.89,251.92L203.16,251.92L203.16,256.19L198.89,256.19Z"  />
<path d="M55.544,156.38L59.812,156.38L59.812,160.65L55.544,160.65Z"  />
<path d="M244.97,254.51L249.24,254.51L249.24,258.77L244.97,258.77Z"  />
<path d="M206.57,120.23L210.84,120.23L210.84,124.5L206.57,124.5Z"  />
<path d="M232.17,140.89L236.44,140.89L236.44,145.16L232.17,145.16Z"  />
<path d="M280.81,27.273L285.07,27.273L285.07,31.54L280.81,31.54Z"  />
<path d="M152.82,156.38L157.08,156.38L157.08,160.65L152.82,160.65Z"  />
<path d="M99.061,233.85L103.33,233.85L103.33,238.12L99.061,238.12Z"  />
<path d="M42.745,267.42L47.013,267.42L47.013,271.69L42.745,271.69Z"  />
<path d="M178.41,130.56L182.68,130.56L182.68,134.83L178.41,134.83Z"  />
<path d="M180.97,24.69L185.24,24.69L185.24,28.958L180.97,28.958Z"  />
<path d="M116.98,169.29L121.25,169.29L121.25,173.56L116.98,173.56Z"  />
<path d="M134.9,223.52L139.17,223.52L139.17,227.79L134.9,227.79Z"  />
<path d="M83.702,112.49L87.97,112.49L87.97,116.75L83.702,116.75Z"  />
<path d="M188.65,151.22L192.92,151.22L192.92,155.49L188.65,155.49Z"  />
<path d="M122.1,161.55L126.37,161.55L126.37,165.82L122.1,165.82Z"  />
<path d="M88.822,220.94L93.089,220.94L93.089,225.21L88.822,225.21Z"  />
<path d="M224.49,117.65L228.76,117.65L228.76,121.92L224.49,121.92Z"  />
<path d="M275.69,251.92L279.95,251.92L279.95,256.19L275.69,256.19Z"  />
<path d="M150.26,192.53L154.52,192.53L154.52,196.8L150.26,196.8Z"  />
<path d="M68.343,241.6L72.611,241.6L72.611,245.86L68.343,245.86Z"  />
<path d="M127.22,55.677L131.49,55.677L131.49,59.945L127.22,59.945Z"  />
<path d="M37.626,244.18L41.893,244.18L41.893,248.45L37.626,248.45Z"  />
<path d="M65.783,244.18L70.051,244.18L70.051,248.45L65.783,248.45Z"  />
<path d="M165.62,143.47L169.88,143.47L169.88,147.74L165.62,147.74Z"  />
<path d="M219.37,89.246L223.64,89.246L223.64,93.513L219.37,93.513Z"  />
<path d="M91.381,218.36L95.649,218.36L95.649,222.62L91.381,222.62Z"  />
<path d="M142.58,244.18L146.85,244.18L146.85,248.45L142.58,248.45Z"  />
<path d="M81.142,228.68L85.41,228.68L85.41,232.95L81.142,232.95Z"  />
<path d="M278.25,277.75L282.51,277.75L282.51,282.01L278.25,282.01Z"  />
<path d="M93.941,241.6L98.209,241.6L98.209,245.86L93.941,245.86Z"  />
<path d="M244.97,262.25L249.24,262.25L249.24,266.52L244.97,266.52Z"  />
<path d="M260.33,148.64L264.6,148.64L264.6,152.9L260.33,152.9Z"  />
<path d="M129.78,179.62L134.05,179.62L134.05,183.89L129.78,183.89Z"  />
<path d="M175.85,138.31L180.12,138.31L180.12,142.58L175.85,142.58Z"  />
<path d="M265.45,42.766L269.72,42.766L269.72,47.034L265.45,47.034Z"  />
<path d="M250.09,174.46L254.36,174.46L254.36,178.73L250.09,178.73Z"  />
<path d="M93.941,215.77L98.209,215.77L98.209,220.04L93.941,220.04Z"  />
<path d="M122.1,50.512L126.37,50.512L126.37,54.78L122.1,54.78Z"  />
<path d="M265.45,164.13L269.72,164.13L269.72,168.4L265.45,168.4Z"  />
<path d="M280.81,171.88L285.07,171.88L285.07,176.14L280.81,176.14Z"  />
<path d="M252.65,182.21L256.92,182.21L256.92,186.47L252.65,186.47Z"  />
<path d="M255.21,213.19L259.48,213.19L259.48,217.46L255.21,217.46Z"  />
<path d="M201.45,55.677L205.72,55.677L205.72,59.945L201.45,59.945Z"  />
<path d="M206.57,102.16L210.84,102.16L210.84,106.42L206.57,106.42Z"  />
<path d="M65.783,272.58L70.051,272.58L70.051,276.85L65.783,276.85Z"  />
<path d="M150.26,158.97L154.52,158.97L154.52,163.23L150.26,163.23Z"  />
<path d="M152.82,94.41L157.08,94.41L157.08,98.678L152.82,98.678Z"  />
<path d="M193.77,115.07L198.04,115.07L198.04,119.34L193.77,119.34Z"  />
<path d="M29.946,122.81L34.214,122.81L34.214,127.08L29.946,127.08Z"  />
<path d="M65.783,166.71L70.051,166.71L70.051,170.98L65.783,170.98Z"  />
<path d="M232.17,76.335L236.44,76.335L236.44,80.602L232.17,80.602Z"  />
<path d="M229.61,45.348L233.88,45.348L233.88,49.616L229.61,49.616Z"  />
<path d="M134.9,58.259L139.17,58.259L139.17,62.527L134.9,62.527Z"  />
<path d="M47.865,262.25L52.133,262.25L52.133,266.52L47.865,266.52Z"  />
<path d="M96.501,53.095L100.77,53.095L100.77,57.362L96.501,57.362Z"  />
<path d="M52.984,257.09L57.252,257.09L57.252,261.36L52.984,261.36Z"  />
<path d="M183.53,125.4L187.8,125.4L187.8,129.66L183.53,129.66Z"  />
<path d="M91.381,115.07L95.649,115.07L95.649,119.34L91.381,119.34Z"  />
<path d="M155.38,200.28L159.64,200.28L159.64,204.55L155.38,204.55Z"  />
<path d="M81.142,153.8L85.41,153.8L85.41,158.07L81.142,158.07Z"  />
<path d="M91.381,37.601L95.649,37.601L95.649,41.869L91.381,41.869Z"  />
<path d="M70.903,259.67L75.171,259.67L75.171,263.94L70.903,263.94Z"  />
<path d="M250.09,58.259L254.36,58.259L254.36,62.527L250.09,62.527Z"  />
<path d="M63.224,236.43L67.491,236.43L67.491,240.7L63.224,240.7Z"  />
<path d="M35.066,177.04L39.334,177.04L39.334,181.31L35.066,181.31Z"  />
<path d="M165.62,96.992L169.88,96.992L169.88,101.26L165.62,101.26Z"  />
<path d="M109.3,262.25L113.57,262.25L113.57,266.52L109.3,266.52Z"  />
<path d="M163.06,220.94L167.32,220.94L167.32,225.21L163.06,225.21Z"  />
<path d="M204.01,104.74L208.28,104.74L208.28,109.01L204.01,109.01Z"  />
<path d="M204.01,133.14L208.28,133.14L208.28,137.41L204.01,137.41Z"  />
<path d="M140.02,169.29L144.29,169.29L144.29,173.56L140.02,173.56Z"  />
<path d="M163.06,146.05L167.32,146.05L167.32,150.32L163.06,150.32Z"  />
<path d="M283.37,127.98L287.63,127.98L287.63,132.25L283.37,132.25Z"  />
<path d="M173.29,135.73L177.56,135.73L177.56,139.99L173.29,139.99Z"  />
<path d="M221.93,86.663L226.2,86.663L226.2,90.931L221.93,90.931Z"  />
<path d="M145.14,164.13L149.4,164.13L149.4,168.4L145.14,168.4Z"  />
<path d="M160.5,47.93L164.76,47.93L164.76,52.198L160.5,52.198Z"  />
<path d="M260.33,40.184L264.6,40.184L264.6,44.451L260.33,44.451Z"  />
<path d="M283.37,24.69L287.63,24.69L287.63,28.958L283.37,28.958Z"  />
<path d="M204.01,161.55L208.28,161.55L208.28,165.82L204.01,165.82Z"  />
<path d="M40.185,270L44.453,270L44.453,274.27L40.185,274.27Z"  />
<path d="M32.506,29.855L36.774,29.855L36.774,34.123L32.506,34.123Z"  />
<path d="M196.33,226.1L200.6,226.1L200.6,230.37L196.33,230.37Z"  />
</g>
</svg>
