<?xml version="1.0"?>
<!-- Generated by SVGo and Plotinum VG -->
<svg width="288pt" height="288pt" viewBox="0 0 288 288"
	xmlns="http://www.w3.org/2000/svg"
	xmlns:xlink="http://www.w3.org/1999/xlink">
<g transform="scale(1, -1) translate(0, -288)">
<path d="M0,0L288,0L288,288L0,288Z" style="fill:#FFFFFF" />
<text x="29.58" y="-3.252" transform="scale(1, -1)"
	style="font-family:Liberation Serif;font-variant:normal;font-weight:normal;font-style:normal;font-size:10px">0</text>
<text x="103.87" y="-3.252" transform="scale(1, -1)"
	style="font-family:Liberation Serif;font-variant:normal;font-weight:normal;font-style:normal;font-size:10px">30</text>
<text x="180.67" y="-3.252" transform="scale(1, -1)"
	style="font-family:Liberation Serif;font-variant:normal;font-weight:normal;font-style:normal;font-size:10px">60</text>
<text x="257.46" y="-3.252" transform="scale(1, -1)"
	style="font-family:Liberation Serif;font-variant:normal;font-weight:normal;font-style:normal;font-size:10px">90</text>
<path d="M32.08,11.074L32.08,19.074" style="fill:none;stroke:#000000;stroke-width:0.5" />
<path d="M108.87,11.074L108.87,19.074" style="fill:none;stroke:#000000;stroke-width:0.5" />
<path d="M185.67,11.074L185.67,19.074" style="fill:none;stroke:#000000;stroke-width:0.5" />
<path d="M262.46,11.074L262.46,19.074" style="fill:none;stroke:#000000;stroke-width:0.5" />
<path d="M57.678,15.074L57.678,19.074" style="fill:none;stroke:#000000;stroke-width:0.5" />
<path d="M83.276,15.074L83.276,19.074" style="fill:none;stroke:#000000;stroke-width:0.5" />
<path d="M134.47,15.074L134.47,19.074" style="fill:none;stroke:#000000;stroke-width:0.5" />
<path d="M160.07,15.074L160.07,19.074" style="fill:none;stroke:#000000;stroke-width:0.5" />
<path d="M211.27,15.074L211.27,19.074" style="fill:none;stroke:#000000;stroke-width:0.5" />
<path d="M236.86,15.074L236.86,19.074" style="fill:none;stroke:#000000;stroke-width:0.5" />
<path d="M32.08,19.074L285.5,19.074" style="fill:none;stroke:#000000;stroke-width:0.5" />
<text x="0" y="-47.779" transform="scale(1, -1)"
	style="font-family:Liberation Serif;font-variant:normal;font-weight:normal;font-style:normal;font-size:10px">-90</text>
<text x="0" y="-125.25" transform="scale(1, -1)"
	style="font-family:Liberation Serif;font-variant:normal;font-weight:normal;font-style:normal;font-size:10px">-60</text>
<text x="0" y="-202.71" transform="scale(1, -1)"
	style="font-family:Liberation Serif;font-variant:normal;font-weight:normal;font-style:normal;font-size:10px">-30</text>
<text x="8.3301" y="-280.18" transform="scale(1, -1)"
	style="font-family:Liberation Serif;font-variant:normal;font-weight:normal;font-style:normal;font-size:10px">0</text>
<path d="M15.83,50.064L23.83,50.064" style="fill:none;stroke:#000000;stroke-width:0.5" />
<path d="M15.83,127.53L23.83,127.53" style="fill:none;stroke:#000000;stroke-width:0.5" />
<path d="M15.83,205L23.83,205" style="fill:none;stroke:#000000;stroke-width:0.5" />
<path d="M15.83,282.46L23.83,282.46" style="fill:none;stroke:#000000;stroke-width:0.5" />
<path d="M19.83,75.886L23.83,75.886" style="fill:none;stroke:#000000;stroke-width:0.5" />
<path d="M19.83,101.71L23.83,101.71" style="fill:none;stroke:#000000;stroke-width:0.5" />
<path d="M19.83,153.35L23.83,153.35" style="fill:none;stroke:#000000;stroke-width:0.5" />
<path d="M19.83,179.17L23.83,179.17" style="fill:none;stroke:#000000;stroke-width:0.5" />
<path d="M19.83,230.82L23.83,230.82" style="fill:none;stroke:#000000;stroke-width:0.5" />
<path d="M19.83,256.64L23.83,256.64" style="fill:none;stroke:#000000;stroke-width:0.5" />
<path d="M23.83,26.824L23.83,282.46" style="fill:none;stroke:#000000;stroke-width:0.5" />
<path d="M114.42,195.12L118.69,195.12L118.69,199.38L114.42,199.38Z"  />
<path d="M124.66,187.37L128.93,187.37L128.93,191.64L124.66,191.64Z"  />
<path d="M124.66,182.21L128.93,182.21L128.93,186.47L124.66,186.47Z"  />
<path d="M262.89,47.93L267.16,47.93L267.16,52.198L262.89,52.198Z"  />
<path d="M209.13,96.992L213.4,96.992L213.4,101.26L209.13,101.26Z"  />
<path d="M239.85,66.006L244.12,66.006L244.12,70.273L239.85,70.273Z"  />
<path d="M127.22,184.79L131.49,184.79L131.49,189.06L127.22,189.06Z"  />
<path d="M83.702,223.52L87.97,223.52L87.97,227.79L83.702,227.79Z"  />
<path d="M242.41,68.588L246.68,68.588L246.68,72.856L242.41,72.856Z"  />
<path d="M237.29,68.588L241.56,68.588L241.56,72.856L237.29,72.856Z"  />
<path d="M275.69,35.019L279.95,35.019L279.95,39.287L275.69,39.287Z"  />
<path d="M227.05,78.917L231.32,78.917L231.32,83.184L227.05,83.184Z"  />
<path d="M73.463,236.43L77.731,236.43L77.731,240.7L73.463,240.7Z"  />
<path d="M73.463,233.85L77.731,233.85L77.731,238.12L73.463,238.12Z"  />
<path d="M68.343,244.18L72.611,244.18L72.611,248.45L68.343,248.45Z"  />
<path d="M255.21,53.095L259.48,53.095L259.48,57.362L255.21,57.362Z"  />
<path d="M111.86,197.7L116.13,197.7L116.13,201.97L111.86,201.97Z"  />
<path d="M93.941,218.36L98.209,218.36L98.209,222.62L93.941,222.62Z"  />
<path d="M232.17,76.335L236.44,76.335L236.44,80.602L232.17,80.602Z"  />
<path d="M47.865,262.25L52.133,262.25L52.133,266.52L47.865,266.52Z"  />
<path d="M178.41,127.98L182.68,127.98L182.68,132.25L178.41,132.25Z"  />
<path d="M42.745,270L47.013,270L47.013,274.27L42.745,274.27Z"  />
<path d="M193.77,112.49L198.04,112.49L198.04,116.75L193.77,116.75Z"  />
<path d="M198.89,107.32L203.16,107.32L203.16,111.59L198.89,111.59Z"  />
<path d="M160.5,146.05L164.76,146.05L164.76,150.32L160.5,150.32Z"  />
<path d="M145.14,166.71L149.4,166.71L149.4,170.98L145.14,170.98Z"  />
<path d="M280.81,29.855L285.07,29.855L285.07,34.123L280.81,34.123Z"  />
<path d="M35.066,275.16L39.334,275.16L39.334,279.43L35.066,279.43Z"  />
<path d="M175.85,130.56L180.12,130.56L180.12,134.83L175.85,134.83Z"  />
<path d="M280.81,24.69L285.07,24.69L285.07,28.958L280.81,28.958Z"  />
<path d="M178.41,133.14L182.68,133.14L182.68,137.41L178.41,137.41Z"  />
<path d="M204.01,104.74L208.28,104.74L208.28,109.01L204.01,109.01Z"  />
<path d="M47.865,259.67L52.133,259.67L52.133,263.94L47.865,263.94Z"  />
<path d="M111.86,195.12L116.13,195.12L116.13,199.38L111.86,199.38Z"  />
<path d="M45.305,267.42L49.573,267.42L49.573,271.69L45.305,271.69Z"  />
<path d="M237.29,71.17L241.56,71.17L241.56,75.438L237.29,75.438Z"  />
<path d="M175.85,135.73L180.12,135.73L180.12,139.99L175.85,139.99Z"  />
<path d="M260.33,45.348L264.6,45.348L264.6,49.616L260.33,49.616Z"  />
<path d="M211.69,94.41L215.96,94.41L215.96,98.678L211.69,98.678Z"  />
<path d="M270.57,40.184L274.83,40.184L274.83,44.451L270.57,44.451Z"  />
<path d="M76.023,233.85L80.29,233.85L80.29,238.12L76.023,238.12Z"  />
<path d="M206.57,102.16L210.84,102.16L210.84,106.42L206.57,106.42Z"  />
<path d="M268.01,40.184L272.28,40.184L272.28,44.451L268.01,44.451Z"  />
<path d="M165.62,146.05L169.88,146.05L169.88,150.32L165.62,150.32Z"  />
<path d="M234.73,71.17L239,71.17L239,75.438L234.73,75.438Z"  />
<path d="M152.82,158.97L157.08,158.97L157.08,163.23L152.82,163.23Z"  />
<path d="M252.65,53.095L256.92,53.095L256.92,57.362L252.65,57.362Z"  />
<path d="M183.53,127.98L187.8,127.98L187.8,132.25L183.53,132.25Z"  />
<path d="M268.01,42.766L272.28,42.766L272.28,47.034L268.01,47.034Z"  />
<path d="M257.77,50.512L262.04,50.512L262.04,54.78L257.77,54.78Z"  />
<path d="M63.224,249.34L67.491,249.34L67.491,253.61L63.224,253.61Z"  />
<path d="M278.25,29.855L282.51,29.855L282.51,34.123L278.25,34.123Z"  />
<path d="M106.74,205.44L111.01,205.44L111.01,209.71L106.74,209.71Z"  />
<path d="M52.984,257.09L57.252,257.09L57.252,261.36L52.984,261.36Z"  />
<path d="M224.49,86.663L228.76,86.663L228.76,90.931L224.49,90.931Z"  />
<path d="M242.41,63.423L246.68,63.423L246.68,67.691L242.41,67.691Z"  />
<path d="M163.06,143.47L167.32,143.47L167.32,147.74L163.06,147.74Z"  />
<path d="M78.582,233.85L82.85,233.85L82.85,238.12L78.582,238.12Z"  />
<path d="M262.89,45.348L267.16,45.348L267.16,49.616L262.89,49.616Z"  />
<path d="M91.381,220.94L95.649,220.94L95.649,225.21L91.381,225.21Z"  />
<path d="M229.61,78.917L233.88,78.917L233.88,83.184L229.61,83.184Z"  />
<path d="M63.224,24.69L67.491,24.69L67.491,28.958L63.224,28.958Z"  />
<path d="M81.142,228.68L85.41,228.68L85.41,232.95L81.142,232.95Z"  />
<path d="M73.463,239.01L77.731,239.01L77.731,243.28L73.463,243.28Z"  />
<path d="M104.18,202.86L108.45,202.86L108.45,207.13L104.18,207.13Z"  />
<path d="M111.86,200.28L116.13,200.28L116.13,204.55L111.86,204.55Z"  />
<path d="M188.65,117.65L192.92,117.65L192.92,121.92L188.65,121.92Z"  />
<path d="M88.822,218.36L93.089,218.36L93.089,222.62L88.822,222.62Z"  />
<path d="M204.01,102.16L208.28,102.16L208.28,106.42L204.01,106.42Z"  />
<path d="M237.29,73.752L241.56,73.752L241.56,78.02L237.29,78.02Z"  />
<path d="M37.626,272.58L41.893,272.58L41.893,276.85L37.626,276.85Z"  />
<path d="M257.77,53.095L262.04,53.095L262.04,57.362L257.77,57.362Z"  />
<path d="M137.46,169.29L141.73,169.29L141.73,173.56L137.46,173.56Z"  />
<path d="M129.78,182.21L134.05,182.21L134.05,186.47L129.78,186.47Z"  />
<path d="M104.18,208.03L108.45,208.03L108.45,212.29L104.18,212.29Z"  />
<path d="M201.45,104.74L205.72,104.74L205.72,109.01L201.45,109.01Z"  />
<path d="M183.53,122.81L187.8,122.81L187.8,127.08L183.53,127.08Z"  />
<path d="M155.38,156.38L159.64,156.38L159.64,160.65L155.38,160.65Z"  />
<path d="M55.544,251.92L59.812,251.92L59.812,256.19L55.544,256.19Z"  />
<path d="M29.946,280.33L34.214,280.33L34.214,284.6L29.946,284.6Z"  />
<path d="M191.21,115.07L195.48,115.07L195.48,119.34L191.21,119.34Z"  />
<path d="M227.05,84.081L231.32,84.081L231.32,88.349L227.05,88.349Z"  />
<path d="M114.42,192.53L118.69,192.53L118.69,196.8L114.42,196.8Z"  />
<path d="M99.061,208.03L103.33,208.03L103.33,212.29L99.061,212.29Z"  />
<path d="M37.626,270L41.893,270L41.893,274.27L37.626,274.27Z"  />
<path d="M129.78,177.04L134.05,177.04L134.05,181.31L129.78,181.31Z"  />
<path d="M216.81,89.246L221.08,89.246L221.08,93.513L216.81,93.513Z"  />
<path d="M101.62,208.03L105.89,208.03L105.89,212.29L101.62,212.29Z"  />
<path d="M211.69,96.992L215.96,96.992L215.96,101.26L211.69,101.26Z"  />
<path d="M193.77,117.65L198.04,117.65L198.04,121.92L193.77,121.92Z"  />
<path d="M244.97,66.006L249.24,66.006L249.24,70.273L244.97,70.273Z"  />
<path d="M227.05,81.499L231.32,81.499L231.32,85.767L227.05,85.767Z"  />
<path d="M180.97,130.56L185.24,130.56L185.24,134.83L180.97,134.83Z"  />
<path d="M42.745,267.42L47.013,267.42L47.013,271.69L42.745,271.69Z"  />
<path d="M211.69,99.574L215.96,99.574L215.96,103.84L211.69,103.84Z"  />
<path d="M132.34,174.46L136.61,174.46L136.61,178.73L132.34,178.73Z"  />
<path d="M170.74,138.31L175,138.31L175,142.58L170.74,142.58Z"  />
<path d="M191.21,117.65L195.48,117.65L195.48,121.92L191.21,121.92Z"  />
<path d="M83.702,228.68L87.97,228.68L87.97,232.95L83.702,232.95Z"  />
<path d="M188.65,120.23L192.92,120.23L192.92,124.5L188.65,124.5Z"  />
<path d="M127.22,179.62L131.49,179.62L131.49,183.89L127.22,183.89Z"  />
<path d="M152.82,153.8L157.08,153.8L157.08,158.07L152.82,158.07Z"  />
<path d="M109.3,202.86L113.57,202.86L113.57,207.13L109.3,207.13Z"  />
<path d="M173.29,133.14L177.56,133.14L177.56,137.41L173.29,137.41Z"  />
<path d="M214.25,96.992L218.52,96.992L218.52,101.26L214.25,101.26Z"  />
<path d="M219.37,89.246L223.64,89.246L223.64,93.513L219.37,93.513Z"  />
<path d="M275.69,29.855L279.95,29.855L279.95,34.123L275.69,34.123Z"  />
<path d="M157.94,148.64L162.2,148.64L162.2,152.9L157.94,152.9Z"  />
<path d="M180.97,125.4L185.24,125.4L185.24,129.66L180.97,129.66Z"  />
<path d="M163.06,146.05L167.32,146.05L167.32,150.32L163.06,150.32Z"  />
<path d="M150.26,158.97L154.52,158.97L154.52,163.23L150.26,163.23Z"  />
<path d="M88.822,223.52L93.089,223.52L93.089,227.79L88.822,227.79Z"  />
<path d="M68.343,241.6L72.611,241.6L72.611,245.86L68.343,245.86Z"  />
<path d="M157.94,153.8L162.2,153.8L162.2,158.07L157.94,158.07Z"  />
<path d="M147.7,164.13L151.96,164.13L151.96,168.4L147.7,168.4Z"  />
<path d="M270.57,37.601L274.83,37.601L274.83,41.869L270.57,41.869Z"  />
<path d="M137.46,174.46L141.73,174.46L141.73,178.73L137.46,178.73Z"  />
<path d="M178.41,130.56L182.68,130.56L182.68,134.83L178.41,134.83Z"  />
<path d="M278.25,27.273L282.51,27.273L282.51,31.54L278.25,31.54Z"  />
<path d="M244.97,63.423L249.24,63.423L249.24,67.691L244.97,67.691Z"  />
<path d="M221.93,89.246L226.2,89.246L226.2,93.513L221.93,93.513Z"  />
<path d="M257.77,47.93L262.04,47.93L262.04,52.198L257.77,52.198Z"  />
<path d="M283.37,27.273L287.63,27.273L287.63,31.54L283.37,31.54Z"  />
<path d="M76.023,236.43L80.29,236.43L80.29,240.7L76.023,240.7Z"  />
<path d="M106.74,200.28L111.01,200.28L111.01,204.55L106.74,204.55Z"  />
<path d="M239.85,71.17L244.12,71.17L244.12,75.438L239.85,75.438Z"  />
<path d="M29.946,277.75L34.214,277.75L34.214,282.01L29.946,282.01Z"  />
<path d="M168.18,143.47L172.44,143.47L172.44,147.74L168.18,147.74Z"  />
<path d="M134.9,171.88L139.17,171.88L139.17,176.14L134.9,176.14Z"  />
<path d="M55.544,257.09L59.812,257.09L59.812,261.36L55.544,261.36Z"  />
<path d="M221.93,86.663L226.2,86.663L226.2,90.931L221.93,90.931Z"  />
<path d="M196.33,109.9L200.6,109.9L200.6,114.17L196.33,114.17Z"  />
<path d="M35.066,272.58L39.334,272.58L39.334,276.85L35.066,276.85Z"  />
<path d="M180.97,127.98L185.24,127.98L185.24,132.25L180.97,132.25Z"  />
<path d="M242.41,66.006L246.68,66.006L246.68,70.273L242.41,70.273Z"  />
<path d="M81.142,226.1L85.41,226.1L85.41,230.37L81.142,230.37Z"  />
<path d="M76.023,231.27L80.29,231.27L80.29,235.53L76.023,235.53Z"  />
<path d="M96.501,215.77L100.77,215.77L100.77,220.04L96.501,220.04Z"  />
<path d="M196.33,112.49L200.6,112.49L200.6,116.75L196.33,116.75Z"  />
<path d="M155.38,151.22L159.64,151.22L159.64,155.49L155.38,155.49Z"  />
<path d="M122.1,187.37L126.37,187.37L126.37,191.64L122.1,191.64Z"  />
<path d="M140.02,166.71L144.29,166.71L144.29,170.98L140.02,170.98Z"  />
<path d="M101.62,210.61L105.89,210.61L105.89,214.88L101.62,214.88Z"  />
<path d="M273.13,35.019L277.39,35.019L277.39,39.287L273.13,39.287Z"  />
<path d="M175.85,133.14L180.12,133.14L180.12,137.41L175.85,137.41Z"  />
<path d="M157.94,151.22L162.2,151.22L162.2,155.49L157.94,155.49Z"  />
<path d="M168.18,140.89L172.44,140.89L172.44,145.16L168.18,145.16Z"  />
<path d="M186.09,120.23L190.36,120.23L190.36,124.5L186.09,124.5Z"  />
<path d="M186.09,122.81L190.36,122.81L190.36,127.08L186.09,127.08Z"  />
<path d="M283.37,24.69L287.63,24.69L287.63,28.958L283.37,28.958Z"  />
<path d="M96.501,210.61L100.77,210.61L100.77,214.88L96.501,214.88Z"  />
<path d="M50.425,262.25L54.692,262.25L54.692,266.52L50.425,266.52Z"  />
<path d="M224.49,81.499L228.76,81.499L228.76,85.767L224.49,85.767Z"  />
<path d="M229.61,76.335L233.88,76.335L233.88,80.602L229.61,80.602Z"  />
<path d="M219.37,91.828L223.64,91.828L223.64,96.096L219.37,96.096Z"  />
<path d="M262.89,42.766L267.16,42.766L267.16,47.034L262.89,47.034Z"  />
<path d="M221.93,84.081L226.2,84.081L226.2,88.349L221.93,88.349Z"  />
<path d="M239.85,68.588L244.12,68.588L244.12,72.856L239.85,72.856Z"  />
<path d="M150.26,156.38L154.52,156.38L154.52,160.65L150.26,160.65Z"  />
<path d="M70.903,241.6L75.171,241.6L75.171,245.86L70.903,245.86Z"  />
<path d="M134.9,177.04L139.17,177.04L139.17,181.31L134.9,181.31Z"  />
<path d="M206.57,104.74L210.84,104.74L210.84,109.01L206.57,109.01Z"  />
<path d="M250.09,55.677L254.36,55.677L254.36,59.945L250.09,59.945Z"  />
<path d="M209.13,102.16L213.4,102.16L213.4,106.42L209.13,106.42Z"  />
<path d="M40.185,270L44.453,270L44.453,274.27L40.185,274.27Z"  />
<path d="M47.865,264.84L52.133,264.84L52.133,269.1L47.865,269.1Z"  />
<path d="M273.13,37.601L277.39,37.601L277.39,41.869L273.13,41.869Z"  />
<path d="M270.57,35.019L274.83,35.019L274.83,39.287L270.57,39.287Z"  />
<path d="M101.62,205.44L105.89,205.44L105.89,209.71L101.62,209.71Z"  />
<path d="M32.506,275.16L36.774,275.16L36.774,279.43L32.506,279.43Z"  />
<path d="M68.343,239.01L72.611,239.01L72.611,243.28L68.343,243.28Z"  />
<path d="M247.53,58.259L251.8,58.259L251.8,62.527L247.53,62.527Z"  />
<path d="M134.9,174.46L139.17,174.46L139.17,178.73L134.9,178.73Z"  />
<path d="M88.822,220.94L93.089,220.94L93.089,225.21L88.822,225.21Z"  />
<path d="M155.38,153.8L159.64,153.8L159.64,158.07L155.38,158.07Z"  />
<path d="M127.22,182.21L131.49,182.21L131.49,186.47L127.22,186.47Z"  />
<path d="M35.066,277.75L39.334,277.75L39.334,282.01L35.066,282.01Z"  />
<path d="M255.21,50.512L259.48,50.512L259.48,54.78L255.21,54.78Z"  />
<path d="M234.73,73.752L239,73.752L239,78.02L234.73,78.02Z"  />
<path d="M50.425,259.67L54.692,259.67L54.692,263.94L50.425,263.94Z"  />
<path d="M86.262,226.1L90.529,226.1L90.529,230.37L86.262,230.37Z"  />
<path d="M116.98,192.53L121.25,192.53L121.25,196.8L116.98,196.8Z"  />
<path d="M99.061,210.61L103.33,210.61L103.33,214.88L99.061,214.88Z"  />
<path d="M204.01,107.32L208.28,107.32L208.28,111.59L204.01,111.59Z"  />
<path d="M52.984,259.67L57.252,259.67L57.252,263.94L52.984,263.94Z"  />
<path d="M209.13,99.574L213.4,99.574L213.4,103.84L209.13,103.84Z"  />
<path d="M150.26,161.55L154.52,161.55L154.52,165.82L150.26,165.82Z"  />
<path d="M268.01,37.601L272.28,37.601L272.28,41.869L268.01,41.869Z"  />
<path d="M214.25,94.41L218.52,94.41L218.52,98.678L214.25,98.678Z"  />
<path d="M216.81,94.41L221.08,94.41L221.08,98.678L216.81,98.678Z"  />
<path d="M265.45,42.766L269.72,42.766L269.72,47.034L265.45,47.034Z"  />
<path d="M109.3,200.28L113.57,200.28L113.57,204.55L109.3,204.55Z"  />
<path d="M142.58,169.29L146.85,169.29L146.85,173.56L142.58,173.56Z"  />
<path d="M265.45,45.348L269.72,45.348L269.72,49.616L265.45,49.616Z"  />
<path d="M83.702,226.1L87.97,226.1L87.97,230.37L83.702,230.37Z"  />
<path d="M86.262,220.94L90.529,220.94L90.529,225.21L86.262,225.21Z"  />
<path d="M114.42,197.7L118.69,197.7L118.69,201.97L114.42,201.97Z"  />
<path d="M165.62,143.47L169.88,143.47L169.88,147.74L165.62,147.74Z"  />
<path d="M52.984,254.51L57.252,254.51L57.252,258.77L52.984,258.77Z"  />
<path d="M224.49,84.081L228.76,84.081L228.76,88.349L224.49,88.349Z"  />
<path d="M65.783,241.6L70.051,241.6L70.051,245.86L65.783,245.86Z"  />
<path d="M142.58,166.71L146.85,166.71L146.85,170.98L142.58,170.98Z"  />
<path d="M140.02,169.29L144.29,169.29L144.29,173.56L140.02,173.56Z"  />
<path d="M50.425,257.09L54.692,257.09L54.692,261.36L50.425,261.36Z"  />
<path d="M186.09,125.4L190.36,125.4L190.36,129.66L186.09,129.66Z"  />
<path d="M58.104,249.34L62.372,249.34L62.372,253.61L58.104,253.61Z"  />
<path d="M116.98,189.95L121.25,189.95L121.25,194.22L116.98,194.22Z"  />
<path d="M252.65,58.259L256.92,58.259L256.92,62.527L252.65,62.527Z"  />
<path d="M198.89,109.9L203.16,109.9L203.16,114.17L198.89,114.17Z"  />
<path d="M252.65,55.677L256.92,55.677L256.92,59.945L252.65,59.945Z"  />
<path d="M152.82,156.38L157.08,156.38L157.08,160.65L152.82,160.65Z"  />
<path d="M140.02,171.88L144.29,171.88L144.29,176.14L140.02,176.14Z"  />
<path d="M104.18,205.44L108.45,205.44L108.45,209.71L104.18,209.71Z"  />
<path d="M280.81,27.273L285.07,27.273L285.07,31.54L280.81,31.54Z"  />
<path d="M45.305,264.84L49.573,264.84L49.573,269.1L45.305,269.1Z"  />
<path d="M214.25,91.828L218.52,91.828L218.52,96.096L214.25,96.096Z"  />
<path d="M106.74,202.86L111.01,202.86L111.01,207.13L106.74,207.13Z"  />
<path d="M93.941,213.19L98.209,213.19L98.209,217.46L93.941,217.46Z"  />
<path d="M63.224,246.76L67.491,246.76L67.491,251.03L63.224,251.03Z"  />
<path d="M196.33,115.07L200.6,115.07L200.6,119.34L196.33,119.34Z"  />
<path d="M58.104,254.51L62.372,254.51L62.372,258.77L58.104,258.77Z"  />
<path d="M122.1,184.79L126.37,184.79L126.37,189.06L122.1,189.06Z"  />
<path d="M119.54,187.37L123.81,187.37L123.81,191.64L119.54,191.64Z"  />
<path d="M163.06,148.64L167.32,148.64L167.32,152.9L163.06,152.9Z"  />
<path d="M278.25,32.437L282.51,32.437L282.51,36.705L278.25,36.705Z"  />
<path d="M55.544,254.51L59.812,254.51L59.812,258.77L55.544,258.77Z"  />
<path d="M60.664,246.76L64.932,246.76L64.932,251.03L60.664,251.03Z"  />
<path d="M198.89,112.49L203.16,112.49L203.16,116.75L198.89,116.75Z"  />
<path d="M275.69,32.437L279.95,32.437L279.95,36.705L275.69,36.705Z"  />
<path d="M234.73,76.335L239,76.335L239,80.602L234.73,80.602Z"  />
<path d="M93.941,215.77L98.209,215.77L98.209,220.04L93.941,220.04Z"  />
<path d="M168.18,138.31L172.44,138.31L172.44,142.58L168.18,142.58Z"  />
<path d="M60.664,249.34L64.932,249.34L64.932,253.61L60.664,253.61Z"  />
<path d="M65.783,244.18L70.051,244.18L70.051,248.45L65.783,248.45Z"  />
<path d="M119.54,189.95L123.81,189.95L123.81,194.22L119.54,194.22Z"  />
<path d="M160.5,148.64L164.76,148.64L164.76,152.9L160.5,152.9Z"  />
<path d="M60.664,251.92L64.932,251.92L64.932,256.19L60.664,256.19Z"  />
<path d="M232.17,73.752L236.44,73.752L236.44,78.02L232.17,78.02Z"  />
<path d="M116.98,195.12L121.25,195.12L121.25,199.38L116.98,199.38Z"  />
<path d="M170.74,135.73L175,135.73L175,139.99L170.74,139.99Z"  />
<path d="M81.142,231.27L85.41,231.27L85.41,235.53L81.142,235.53Z"  />
<path d="M70.903,239.01L75.171,239.01L75.171,243.28L70.903,243.28Z"  />
<path d="M250.09,60.841L254.36,60.841L254.36,65.109L250.09,65.109Z"  />
<path d="M124.66,184.79L128.93,184.79L128.93,189.06L124.66,189.06Z"  />
<path d="M32.506,277.75L36.774,277.75L36.774,282.01L32.506,282.01Z"  />
<path d="M58.104,251.92L62.372,251.92L62.372,256.19L58.104,256.19Z"  />
<path d="M265.45,40.184L269.72,40.184L269.72,44.451L265.45,44.451Z"  />
<path d="M129.78,179.62L134.05,179.62L134.05,183.89L129.78,183.89Z"  />
<path d="M206.57,99.574L210.84,99.574L210.84,103.84L206.57,103.84Z"  />
<path d="M145.14,164.13L149.4,164.13L149.4,168.4L145.14,168.4Z"  />
<path d="M188.65,122.81L192.92,122.81L192.92,127.08L188.65,127.08Z"  />
<path d="M42.745,264.84L47.013,264.84L47.013,269.1L42.745,269.1Z"  />
<path d="M201.45,109.9L205.72,109.9L205.72,114.17L201.45,114.17Z"  />
<path d="M137.46,171.88L141.73,171.88L141.73,176.14L137.46,176.14Z"  />
<path d="M255.21,55.677L259.48,55.677L259.48,59.945L255.21,59.945Z"  />
<path d="M40.185,267.42L44.453,267.42L44.453,271.69L40.185,271.69Z"  />
<path d="M78.582,231.27L82.85,231.27L82.85,235.53L78.582,235.53Z"  />
<path d="M250.09,58.259L254.36,58.259L254.36,62.527L250.09,62.527Z"  />
<path d="M193.77,115.07L198.04,115.07L198.04,119.34L193.77,119.34Z"  />
<path d="M70.903,236.43L75.171,236.43L75.171,240.7L70.903,240.7Z"  />
<path d="M201.45,107.32L205.72,107.32L205.72,111.59L201.45,111.59Z"  />
<path d="M132.34,177.04L136.61,177.04L136.61,181.31L132.34,181.31Z"  />
<path d="M122.1,189.95L126.37,189.95L126.37,194.22L122.1,194.22Z"  />
<path d="M32.506,280.33L36.774,280.33L36.774,284.6L32.506,284.6Z"  />
<path d="M91.381,215.77L95.649,215.77L95.649,220.04L91.381,220.04Z"  />
<path d="M170.74,140.89L175,140.89L175,145.16L170.74,145.16Z"  />
<path d="M40.185,272.58L44.453,272.58L44.453,276.85L40.185,276.85Z"  />
<path d="M78.582,228.68L82.85,228.68L82.85,232.95L78.582,232.95Z"  />
<path d="M229.61,81.499L233.88,81.499L233.88,85.767L229.61,85.767Z"  />
<path d="M247.53,63.423L251.8,63.423L251.8,67.691L247.53,67.691Z"  />
<path d="M45.305,262.25L49.573,262.25L49.573,266.52L45.305,266.52Z"  />
<path d="M183.53,125.4L187.8,125.4L187.8,129.66L183.53,129.66Z"  />
<path d="M147.7,158.97L151.96,158.97L151.96,163.23L147.7,163.23Z"  />
<path d="M145.14,161.55L149.4,161.55L149.4,165.82L145.14,165.82Z"  />
<path d="M96.501,213.19L100.77,213.19L100.77,217.46L96.501,217.46Z"  />
<path d="M91.381,218.36L95.649,218.36L95.649,222.62L91.381,222.62Z"  />
<path d="M216.81,91.828L221.08,91.828L221.08,96.096L216.81,96.096Z"  />
<path d="M260.33,47.93L264.6,47.93L264.6,52.198L260.33,52.198Z"  />
<path d="M99.061,213.19L103.33,213.19L103.33,217.46L99.061,217.46Z"  />
<path d="M86.262,223.52L90.529,223.52L90.529,227.79L86.262,227.79Z"  />
<path d="M147.7,161.55L151.96,161.55L151.96,165.82L147.7,165.82Z"  />
<path d="M247.53,60.841L251.8,60.841L251.8,65.109L247.53,65.109Z"  />
<path d="M119.54,192.53L123.81,192.53L123.81,196.8L119.54,196.8Z"  />
<path d="M165.62,140.89L169.88,140.89L169.88,145.16L165.62,145.16Z"  />
<path d="M219.37,86.663L223.64,86.663L223.64,90.931L219.37,90.931Z"  />
<path d="M232.17,78.917L236.44,78.917L236.44,83.184L232.17,83.184Z"  />
<path d="M283.37,246.76L287.63,246.76L287.63,251.03L283.37,251.03Z"  />
<path d="M260.33,50.512L264.6,50.512L264.6,54.78L260.33,54.78Z"  />
<path d="M244.97,60.841L249.24,60.841L249.24,65.109L244.97,65.109Z"  />
<path d="M273.13,32.437L277.39,32.437L277.39,36.705L273.13,36.705Z"  />
<path d="M142.58,164.13L146.85,164.13L146.85,168.4L142.58,168.4Z"  />
<path d="M173.29,138.31L177.56,138.31L177.56,142.58L173.29,142.58Z"  />
<path d="M132.34,179.62L136.61,179.62L136.61,183.89L132.34,183.89Z"  />
<path d="M160.5,151.22L164.76,151.22L164.76,155.49L160.5,155.49Z"  />
<path d="M173.29,135.73L177.56,135.73L177.56,139.99L173.29,139.99Z"  />
<path d="M109.3,197.7L113.57,197.7L113.57,201.97L109.3,201.97Z"  />
<path d="M37.626,275.16L41.893,275.16L41.893,279.43L37.626,279.43Z"  />
<path d="M191.21,120.23L195.48,120.23L195.48,124.5L191.21,124.5Z"  />
</g>
</svg>
